<?xml version="1.0" standalone="no"?>
<!DOCTYPE svg PUBLIC "-//W3C//DTD SVG 20010904//EN"
 "http://www.w3.org/TR/2001/REC-SVG-20010904/DTD/svg10.dtd">
<svg version="1.0" xmlns="http://www.w3.org/2000/svg"
 width="1600.000000pt" height="1600.000000pt" viewBox="0 0 1600.000000 1600.000000"
 preserveAspectRatio="xMidYMid meet">
<metadata>
Created by potrace 1.14, written by Peter Selinger 2001-2017
</metadata>
<g transform="translate(0.000000,1600.000000) scale(0.100000,-0.100000)"
fill="#000000" stroke="none">
<path d="M1459 9726 c-2 -2 -38 -7 -79 -10 -41 -4 -84 -9 -95 -11 -11 -3 -31
-7 -45 -9 -214 -35 -440 -131 -615 -260 -203 -149 -365 -367 -465 -626 -43
-112 -89 -286 -106 -400 -3 -19 -7 -46 -10 -60 -19 -106 -25 -526 -10 -665 4
-38 9 -86 10 -105 2 -19 6 -48 9 -65 4 -16 9 -48 12 -71 3 -22 10 -55 15 -72
5 -18 7 -32 4 -32 -3 0 0 -8 5 -17 5 -10 11 -31 14 -48 13 -77 104 -300 155
-383 83 -134 183 -245 302 -337 130 -100 380 -208 533 -230 15 -2 31 -6 35 -9
4 -2 37 -8 72 -11 36 -4 68 -9 71 -11 6 -4 257 -17 314 -16 59 1 230 12 254
17 13 2 49 7 80 11 31 3 59 8 62 10 4 2 24 7 45 10 56 9 227 66 309 104 324
148 567 414 702 770 37 95 78 240 89 310 5 33 12 65 14 65 1 0 7 36 15 100 24
196 25 612 1 742 -2 10 -7 43 -11 73 -4 30 -9 64 -12 75 -2 11 -6 31 -9 45
-18 90 -64 241 -99 325 -122 292 -314 501 -581 633 -63 31 -159 70 -194 77 -3
1 -25 7 -50 14 -62 18 -174 41 -275 56 -45 7 -460 17 -466 11z m271 -560 c278
-21 492 -168 609 -418 47 -99 81 -216 95 -328 3 -19 7 -46 10 -59 25 -114 25
-565 0 -685 -2 -12 -7 -37 -10 -56 -17 -104 -71 -292 -86 -298 -4 -2 -8 -10
-8 -17 0 -37 -100 -184 -175 -258 -84 -82 -237 -167 -331 -181 -20 -4 -40 -8
-44 -11 -4 -3 -41 -7 -81 -10 -41 -3 -83 -7 -94 -9 -11 -2 -23 -2 -27 1 -4 2
-49 5 -100 8 -98 4 -218 31 -294 65 -76 33 -171 107 -230 178 -53 64 -131 208
-150 277 -26 95 -43 170 -48 206 -3 24 -8 55 -10 69 -34 220 -24 648 18 818 8
28 15 61 20 87 13 66 125 300 155 325 3 3 21 23 40 45 101 118 274 217 421
241 119 19 181 21 320 10z"/>
<path d="M8167 9684 c-1 -1 -36 -4 -77 -7 -153 -12 -159 -18 -337 -344 -13
-24 -34 -62 -46 -86 -13 -23 -54 -98 -92 -167 -80 -148 -112 -207 -150 -275
-83 -151 -125 -227 -175 -320 -18 -33 -42 -78 -55 -100 -12 -22 -36 -65 -52
-95 -85 -158 -118 -218 -135 -242 -11 -16 -16 -28 -13 -28 3 0 -2 -12 -13 -27
-10 -16 -43 -73 -72 -128 -29 -55 -56 -104 -60 -110 -4 -5 -31 -55 -60 -110
-29 -55 -61 -113 -70 -130 -43 -77 -80 -145 -107 -195 -17 -30 -53 -95 -80
-145 -27 -49 -53 -97 -56 -105 -4 -8 -18 -33 -30 -55 -13 -22 -37 -65 -54 -96
-17 -32 -39 -69 -48 -83 -10 -14 -14 -26 -10 -26 5 0 1 -8 -7 -17 -40 -48
-179 -326 -182 -367 -7 -84 31 -99 263 -101 263 -2 360 16 400 74 19 27 93
163 144 266 17 33 37 68 45 78 8 9 12 17 7 17 -4 0 -3 6 3 13 5 6 36 62 67
122 32 61 69 131 83 156 l24 46 626 -1 c617 -1 625 -1 628 -21 2 -11 6 -40 10
-65 3 -25 7 -56 9 -70 2 -14 7 -52 11 -85 3 -33 8 -69 10 -80 2 -11 7 -40 10
-65 3 -25 7 -52 9 -60 3 -16 18 -145 20 -170 2 -29 16 -85 27 -107 19 -38 83
-48 323 -48 328 1 352 15 340 198 -3 49 -7 93 -9 96 -2 3 -7 29 -10 56 -4 28
-9 64 -11 80 -3 17 -7 46 -10 65 -2 19 -7 46 -9 60 -3 14 -12 75 -20 135 -9
61 -18 121 -20 135 -2 14 -7 48 -11 75 -4 28 -9 64 -12 80 -2 17 -6 41 -7 55
-2 14 -6 45 -10 70 -4 25 -9 56 -11 70 -4 31 -15 105 -21 145 -6 40 -11 71
-19 125 -4 25 -9 59 -12 75 -3 17 -6 44 -8 60 -5 35 -19 131 -35 235 -7 41
-14 91 -16 110 -5 53 -12 102 -18 130 -3 14 -8 43 -11 65 -3 22 -7 51 -9 65
-3 14 -7 46 -10 72 -3 26 -8 58 -11 70 -3 13 -7 39 -9 58 -8 59 -17 124 -22
150 -3 14 -6 39 -8 55 -2 17 -7 50 -10 75 -4 25 -9 59 -10 75 -4 31 -12 79
-22 130 -3 17 -6 37 -6 45 0 8 -4 33 -8 55 -5 22 -11 65 -14 95 -4 30 -8 69
-11 85 -3 17 -7 41 -9 55 -23 143 -43 150 -419 154 -120 1 -219 1 -220 0z m67
-713 c4 -29 8 -56 10 -60 2 -3 7 -39 10 -80 4 -41 9 -77 10 -80 2 -3 6 -33 10
-66 3 -33 8 -69 10 -80 2 -11 7 -47 11 -80 8 -61 9 -69 19 -142 3 -24 8 -62
11 -85 3 -24 10 -77 17 -118 6 -41 12 -86 13 -100 2 -14 6 -45 9 -70 4 -25 8
-61 11 -80 2 -19 6 -51 9 -70 3 -19 8 -53 11 -75 2 -22 6 -53 9 -70 17 -97 17
-95 -17 -96 -42 0 -833 0 -874 0 l-32 1 35 68 c20 37 70 132 111 212 42 80 87
165 101 190 14 25 53 99 87 165 78 151 167 319 215 410 43 81 137 260 169 323
12 24 24 42 26 40 1 -1 6 -27 9 -57z"/>
<path d="M14227 9684 c-1 -1 -29 -5 -62 -9 -78 -8 -123 -31 -149 -74 -11 -20
-20 -38 -19 -41 1 -3 -5 -15 -13 -27 -8 -13 -12 -23 -10 -23 3 0 -13 -51 -35
-112 -22 -62 -42 -121 -44 -131 -2 -9 -6 -21 -10 -26 -3 -5 -38 -105 -79 -223
-111 -322 -126 -366 -158 -453 -16 -44 -31 -87 -33 -95 -2 -8 -4 -15 -5 -15
-1 0 -3 -8 -5 -18 -2 -10 -7 -26 -11 -35 -4 -9 -8 -19 -8 -22 -1 -3 -6 -18
-13 -35 -22 -58 -26 -70 -29 -83 -1 -8 -6 -21 -10 -30 -4 -9 -8 -21 -10 -27
-3 -10 -130 -379 -140 -405 -3 -8 -5 -15 -4 -15 0 0 -10 -29 -23 -65 -14 -36
-37 -101 -52 -145 -14 -44 -29 -87 -32 -95 -3 -8 -7 -19 -9 -25 -5 -17 -65
-189 -71 -205 -4 -8 -7 -17 -8 -20 -1 -3 -4 -12 -8 -20 -12 -30 -89 -255 -92
-270 -2 -8 -10 -33 -18 -55 -8 -22 -18 -49 -23 -60 -4 -11 -8 -24 -10 -30 -2
-5 -26 -77 -54 -159 -74 -218 -73 -262 10 -293 37 -15 78 -18 240 -17 220 0
284 11 322 52 18 20 86 198 93 242 1 8 125 393 132 410 4 8 7 17 8 20 0 3 4
15 8 26 l7 21 625 0 624 0 13 -31 c7 -17 13 -35 13 -41 1 -5 4 -17 8 -25 3 -8
51 -149 106 -313 54 -164 106 -306 115 -316 33 -36 92 -44 328 -46 346 -2 388
18 348 165 -7 25 -13 52 -15 60 -4 17 -152 444 -165 475 -4 11 -22 63 -40 115
-17 52 -36 104 -41 115 -5 11 -11 29 -14 40 -2 11 -26 83 -53 160 -61 172 -62
175 -72 200 -5 11 -24 67 -44 125 -19 58 -63 184 -96 280 -34 96 -65 186 -70
200 -4 14 -40 117 -80 230 -40 113 -76 216 -80 230 -5 14 -34 97 -65 185 -31
88 -67 192 -80 230 -34 100 -141 404 -155 440 -23 61 -70 89 -163 101 -46 6
-515 13 -520 8z m527 -1646 c3 -9 34 -105 71 -213 36 -108 64 -199 61 -202 -6
-7 -925 -7 -931 -1 -4 4 148 474 166 513 7 17 56 166 65 200 5 18 146 440 154
460 4 11 20 58 35 105 15 47 32 96 37 110 8 21 35 -52 174 -465 90 -269 166
-497 168 -507z"/>
<path d="M3867 9656 c-68 -25 -106 -71 -115 -141 -3 -22 -6 -710 -6 -1530 0
-1128 3 -1499 12 -1525 17 -50 50 -84 102 -104 41 -17 89 -18 565 -18 286 1
556 4 600 7 101 7 170 14 170 15 0 1 11 3 25 6 367 63 632 214 789 447 28 42
51 78 51 81 0 4 9 25 19 49 30 67 35 80 50 142 26 99 34 300 18 406 -32 205
-154 400 -322 515 -86 58 -241 124 -292 124 -30 0 -30 16 0 24 69 17 287 187
287 224 0 6 4 12 8 12 17 0 95 163 106 222 2 13 9 42 14 66 17 74 7 307 -18
391 -84 293 -309 482 -661 556 -77 17 -98 20 -214 34 -38 5 -313 9 -610 10
-438 0 -547 -2 -578 -13z m993 -497 c238 -15 393 -141 416 -339 2 -19 6 -44 8
-55 1 -11 0 -34 -5 -52 -4 -19 -3 -33 2 -33 6 0 6 -7 1 -17 -5 -10 -12 -33
-15 -51 -11 -56 -54 -135 -100 -182 -39 -40 -167 -121 -167 -105 0 3 -8 1 -18
-4 -29 -16 -143 -23 -350 -23 -108 0 -203 1 -209 1 -10 1 -13 95 -13 434 l0
432 217 -2 c120 -2 225 -3 233 -4z m28 -1363 c7 -4 12 -2 12 4 0 6 3 9 8 7 4
-3 34 -8 67 -11 267 -30 435 -164 471 -376 50 -292 -107 -506 -406 -556 -48
-8 -596 -13 -617 -6 -10 3 -13 107 -13 471 0 257 2 470 4 472 8 7 462 3 474
-5z"/>
<path d="M10445 9657 c-102 -40 -149 -106 -171 -237 -2 -14 -7 -36 -10 -50 -4
-14 -8 -36 -10 -48 -1 -13 -10 -54 -18 -90 -8 -37 -18 -83 -21 -102 -3 -19 -8
-48 -11 -65 -3 -16 -14 -68 -24 -115 -10 -47 -21 -98 -23 -115 -3 -16 -14 -75
-26 -130 -11 -55 -22 -111 -25 -125 -2 -14 -7 -36 -10 -50 -3 -14 -8 -36 -10
-50 -2 -14 -7 -36 -10 -50 -3 -14 -8 -36 -10 -50 -2 -14 -7 -36 -10 -50 -3
-14 -8 -36 -10 -50 -2 -14 -7 -36 -10 -50 -3 -14 -8 -36 -10 -50 -4 -22 -20
-99 -32 -155 -4 -20 -40 -200 -50 -245 -9 -46 -53 -275 -58 -300 -2 -14 -7
-36 -10 -50 -3 -14 -8 -36 -10 -50 -3 -14 -9 -45 -14 -70 -20 -94 -45 -216
-47 -237 -2 -11 -6 -30 -9 -41 -4 -11 -8 -33 -11 -48 -2 -16 -8 -49 -14 -74
-5 -25 -12 -58 -15 -75 -9 -48 -15 -77 -26 -130 -6 -27 -12 -62 -14 -76 -2
-15 -6 -31 -9 -35 -3 -5 -8 -36 -12 -70 -11 -105 19 -152 114 -179 25 -8 1035
-8 1131 -1 154 12 214 18 220 21 3 2 27 6 53 9 26 3 78 13 115 22 37 8 78 18
91 20 13 3 39 11 57 19 19 8 34 13 34 11 0 -3 110 37 215 77 57 23 291 161
315 187 3 3 27 23 55 45 68 55 211 201 260 265 22 29 46 58 53 65 6 8 12 18
12 24 0 6 5 11 10 11 6 0 10 7 10 15 0 8 5 15 10 15 6 0 10 5 10 11 0 6 8 23
19 37 60 87 171 338 212 480 22 75 59 226 64 257 39 253 46 326 47 515 1 121
-8 265 -17 280 -2 3 -6 25 -10 49 -3 24 -10 53 -14 65 -5 11 -9 23 -9 26 0 20
-36 119 -67 185 -49 103 -77 144 -165 238 -30 32 -86 82 -125 111 -103 77
-302 172 -403 191 -9 2 -17 4 -17 5 0 2 -16 6 -55 14 -75 16 -153 30 -240 42
-25 4 -306 8 -625 10 -434 2 -588 0 -610 -9z m1035 -531 c55 -7 145 -31 205
-55 143 -55 265 -164 326 -289 33 -69 56 -138 64 -192 2 -8 6 -31 10 -50 8
-40 9 -289 1 -335 -3 -16 -8 -57 -11 -89 -3 -33 -12 -92 -21 -130 -8 -39 -17
-82 -20 -95 -3 -14 -7 -28 -10 -33 -3 -5 -7 -19 -10 -33 -11 -60 -128 -335
-146 -343 -5 -2 -8 -8 -8 -13 0 -13 -61 -105 -111 -169 -74 -94 -180 -191
-275 -252 -78 -50 -239 -120 -303 -133 -13 -2 -30 -6 -39 -9 -22 -6 -82 -15
-152 -23 -30 -3 -163 -6 -295 -7 -277 -1 -249 -17 -221 124 10 47 20 99 23
115 8 45 11 60 13 60 1 0 3 13 5 30 2 16 9 50 15 75 5 25 12 56 14 70 3 14 5
25 6 25 1 0 3 9 5 20 4 28 14 82 26 133 5 23 12 59 15 80 3 20 8 46 11 57 3
11 7 29 9 40 2 11 5 31 9 45 3 14 7 36 10 50 3 14 7 36 10 50 7 29 23 114 30
150 7 35 37 185 49 245 10 47 48 231 51 245 1 8 6 33 10 55 5 22 9 47 11 55 3
16 17 82 19 90 2 10 17 86 22 110 2 14 12 66 23 115 10 50 21 110 25 134 3 23
11 54 16 68 l9 25 268 -5 c147 -3 287 -7 312 -11z"/>
</g>
</svg>
